<svg width="125" height="120" viewBox="0 0 125 120" fill="none" xmlns="http://www.w3.org/2000/svg">
<path d="M48.4194 39.3672C51.4016 39.3672 54.5849 39.477 57.9694 39.6966C60.6116 39.8528 63.3532 40.1305 66.1942 40.5292C68.2238 40.2621 70.2023 40.0669 72.1293 39.9434C75.2942 39.7423 78.2673 39.6416 81.0483 39.6416C83.8656 39.6416 86.8385 39.7423 89.9668 39.9434C92.8097 40.1252 95.7795 40.4639 98.8764 40.9593C99.4524 41.0514 99.8734 41.5506 99.8734 42.1341V46.5082C99.8734 47.3028 99.1128 47.8764 98.3416 47.685C97.3053 47.4277 96.261 47.2071 95.2082 47.0236C93.635 46.7308 92.0524 46.5022 90.461 46.3376C88.8875 46.1728 87.3143 46.0539 85.7408 45.9807C84.1675 45.9077 82.6034 45.8618 81.0483 45.8436C80.2979 45.8436 79.4657 45.8618 78.551 45.8984C77.6545 45.9168 76.6847 45.9534 75.642 46.0082C74.6178 46.0632 73.5473 46.1455 72.4314 46.2553C71.3153 46.3651 70.1813 46.5022 69.0285 46.6667L68.6719 46.7746V56.2167H84.5452C85.2059 56.2167 85.7412 56.7521 85.7412 57.4128V61.7715C85.7412 62.432 85.2059 62.9676 84.5452 62.9676H68.6719V71.5294C68.6719 72.7551 68.3973 73.853 67.8485 74.8225C67.318 75.7736 66.5769 76.6063 65.6256 77.3198C64.6927 78.0149 63.5766 78.6096 62.2777 79.1033C60.9972 79.5791 59.6067 79.9632 58.1065 80.256C56.6248 80.5488 55.0604 80.7591 53.414 80.8873C51.7673 81.0153 50.1209 81.0794 48.4744 81.0794C46.7911 81.0794 45.1356 81.0153 43.5073 80.8873C41.8791 80.7591 40.3331 80.5488 38.8697 80.256C37.406 79.9632 36.043 79.5791 34.7807 79.1033C33.5366 78.6096 32.4389 78.0149 31.4876 77.3198C30.5363 76.6063 29.7679 75.7736 29.1826 74.8225C28.7583 74.1329 28.454 73.3665 28.2698 72.523C28.1459 71.9547 28.5212 71.4143 29.0812 71.2567L33.4548 70.0265C34.0267 69.8655 34.6212 70.1566 34.9453 70.6546C35.3627 71.2957 35.865 71.8286 36.3999 72.3252C37.1682 73.0388 38.1743 73.5968 39.4184 73.9992C40.6807 74.4018 42.0987 74.6761 43.6719 74.8225C45.2454 74.9689 46.8462 75.0419 48.4744 75.0419C50.1393 75.0419 51.7491 74.9689 53.3042 74.8225C54.8774 74.6579 56.2679 74.3742 57.4754 73.9719C58.7011 73.5509 59.6799 72.9838 60.4117 72.2705C61.1616 71.5569 61.5369 70.6513 61.5369 69.5536V46.5572C59.7075 46.301 57.7407 46.0905 55.6367 45.9259C53.5511 45.7614 51.4197 45.6788 49.2427 45.6788H48.3096C45.2179 45.7154 42.1078 45.8709 38.9795 46.1455C36.3341 46.3632 33.6356 46.7466 30.8845 47.2954C30.1356 47.4446 29.4295 46.8772 29.4295 46.1135V41.7119C29.4295 41.121 29.861 40.618 30.4458 40.534C33.5541 40.0877 36.5357 39.7901 39.3909 39.6416C42.5742 39.4588 45.5839 39.3672 48.4194 39.3672Z" fill="white"/>
<path fill-rule="evenodd" clip-rule="evenodd" d="M0.31154 68.9037L0.229407 69.1257L0.177145 69.3567C-0.384635 71.8382 0.409516 74.4403 2.27877 76.1858L47.1359 118.069C48.9783 119.789 51.5885 120.417 54.0118 119.722L103.685 105.478C106.108 104.783 107.828 103.738 108.479 101.303L124.486 41.1438C125.146 38.6731 124.44 36.0452 122.65 34.2387L122.483 34.0703L122.295 33.9253L80.3329 1.49792C78.526 0.10185 76.1624 -0.35149 73.967 0.278004L23.4663 14.7589C21.2707 15.3882 19.5059 17.0255 18.7136 19.1674L0.31154 68.9037ZM7.17646 70.9408L25.4439 21.6572L75.9449 7.17617L117.553 39.29L101.962 98.5801L52.0336 112.824L7.17646 70.9408Z" fill="white"/>
</svg>
